<mxfile host="app.diagrams.net" agent="Mozilla/5.0 (Windows NT 10.0; Win64; x64) AppleWebKit/537.36 (KHTML, like Gecko) Chrome/131.0.0.0 Safari/537.36" version="25.0.3">
  <diagram name="Page-1" id="Hb1b_EHNZudpU9EXr7wq">
    <mxGraphModel dx="1434" dy="786" grid="1" gridSize="10" guides="1" tooltips="1" connect="1" arrows="1" fold="1" page="1" pageScale="1" pageWidth="850" pageHeight="1100" math="0" shadow="0">
      <root>
        <mxCell id="0" />
        <mxCell id="1" parent="0" />
        <mxCell id="HIvUVLQpr85xc8KO1n1c-16" style="edgeStyle=orthogonalEdgeStyle;rounded=0;orthogonalLoop=1;jettySize=auto;html=1;exitX=0.5;exitY=1;exitDx=0;exitDy=0;entryX=0.5;entryY=0;entryDx=0;entryDy=0;" edge="1" parent="1" source="HIvUVLQpr85xc8KO1n1c-3" target="HIvUVLQpr85xc8KO1n1c-4">
          <mxGeometry relative="1" as="geometry" />
        </mxCell>
        <mxCell id="HIvUVLQpr85xc8KO1n1c-3" value="Identifikasi Masalah" style="rounded=0;whiteSpace=wrap;html=1;" vertex="1" parent="1">
          <mxGeometry x="115" y="200" width="120" height="60" as="geometry" />
        </mxCell>
        <mxCell id="HIvUVLQpr85xc8KO1n1c-15" style="edgeStyle=orthogonalEdgeStyle;rounded=0;orthogonalLoop=1;jettySize=auto;html=1;exitX=0.5;exitY=1;exitDx=0;exitDy=0;entryX=0.5;entryY=0;entryDx=0;entryDy=0;" edge="1" parent="1" source="HIvUVLQpr85xc8KO1n1c-4" target="HIvUVLQpr85xc8KO1n1c-5">
          <mxGeometry relative="1" as="geometry" />
        </mxCell>
        <mxCell id="HIvUVLQpr85xc8KO1n1c-4" value="&lt;div style=&quot;text-align: justify;&quot;&gt;&lt;span style=&quot;background-color: initial;&quot;&gt;Pengumpulan Data:&lt;/span&gt;&lt;/div&gt;&lt;div style=&quot;text-align: justify;&quot;&gt;1. Studi Pustaka&lt;/div&gt;&lt;div style=&quot;text-align: justify;&quot;&gt;2. Riset&lt;/div&gt;" style="rounded=0;whiteSpace=wrap;html=1;align=left;spacingLeft=10;" vertex="1" parent="1">
          <mxGeometry x="105" y="282" width="140" height="70" as="geometry" />
        </mxCell>
        <mxCell id="HIvUVLQpr85xc8KO1n1c-14" style="edgeStyle=orthogonalEdgeStyle;rounded=0;orthogonalLoop=1;jettySize=auto;html=1;exitX=0.5;exitY=1;exitDx=0;exitDy=0;entryX=0.5;entryY=0;entryDx=0;entryDy=0;" edge="1" parent="1" source="HIvUVLQpr85xc8KO1n1c-5" target="HIvUVLQpr85xc8KO1n1c-6">
          <mxGeometry relative="1" as="geometry" />
        </mxCell>
        <mxCell id="HIvUVLQpr85xc8KO1n1c-5" value="&lt;div style=&quot;text-align: justify;&quot;&gt;Merancang Sistem :&lt;/div&gt;&lt;div style=&quot;text-align: justify;&quot;&gt;1. UI/UX&lt;/div&gt;&lt;div style=&quot;text-align: justify;&quot;&gt;2. Penerapan Algorithm&lt;/div&gt;&lt;div style=&quot;text-align: justify;&quot;&gt;3. Pengkodean&lt;/div&gt;" style="rounded=0;whiteSpace=wrap;html=1;align=left;spacingLeft=10;" vertex="1" parent="1">
          <mxGeometry x="98" y="374" width="155" height="70" as="geometry" />
        </mxCell>
        <mxCell id="HIvUVLQpr85xc8KO1n1c-13" style="edgeStyle=orthogonalEdgeStyle;rounded=0;orthogonalLoop=1;jettySize=auto;html=1;exitX=0.5;exitY=1;exitDx=0;exitDy=0;entryX=0.5;entryY=0;entryDx=0;entryDy=0;" edge="1" parent="1" source="HIvUVLQpr85xc8KO1n1c-6" target="HIvUVLQpr85xc8KO1n1c-7">
          <mxGeometry relative="1" as="geometry" />
        </mxCell>
        <mxCell id="HIvUVLQpr85xc8KO1n1c-6" value="Pengujian Sistem" style="rounded=0;whiteSpace=wrap;html=1;" vertex="1" parent="1">
          <mxGeometry x="115.5" y="474" width="120" height="60" as="geometry" />
        </mxCell>
        <mxCell id="HIvUVLQpr85xc8KO1n1c-12" style="edgeStyle=orthogonalEdgeStyle;rounded=0;orthogonalLoop=1;jettySize=auto;html=1;entryX=0.5;entryY=0;entryDx=0;entryDy=0;exitX=0.5;exitY=1;exitDx=0;exitDy=0;" edge="1" parent="1" source="HIvUVLQpr85xc8KO1n1c-7" target="HIvUVLQpr85xc8KO1n1c-8">
          <mxGeometry relative="1" as="geometry">
            <mxPoint x="175" y="692" as="sourcePoint" />
          </mxGeometry>
        </mxCell>
        <mxCell id="HIvUVLQpr85xc8KO1n1c-19" value="Ya" style="edgeLabel;html=1;align=center;verticalAlign=middle;resizable=0;points=[];" vertex="1" connectable="0" parent="HIvUVLQpr85xc8KO1n1c-12">
          <mxGeometry x="-0.1964" relative="1" as="geometry">
            <mxPoint x="-15" as="offset" />
          </mxGeometry>
        </mxCell>
        <mxCell id="HIvUVLQpr85xc8KO1n1c-18" style="edgeStyle=orthogonalEdgeStyle;rounded=0;orthogonalLoop=1;jettySize=auto;html=1;exitX=0;exitY=0.5;exitDx=0;exitDy=0;" edge="1" parent="1" source="HIvUVLQpr85xc8KO1n1c-7">
          <mxGeometry relative="1" as="geometry">
            <mxPoint x="98" y="409" as="targetPoint" />
            <Array as="points">
              <mxPoint x="50" y="604" />
              <mxPoint x="50" y="409" />
            </Array>
          </mxGeometry>
        </mxCell>
        <mxCell id="HIvUVLQpr85xc8KO1n1c-20" value="Tidak" style="edgeLabel;html=1;align=center;verticalAlign=middle;resizable=0;points=[];" vertex="1" connectable="0" parent="HIvUVLQpr85xc8KO1n1c-18">
          <mxGeometry x="-0.7323" y="-1" relative="1" as="geometry">
            <mxPoint x="13" y="-9" as="offset" />
          </mxGeometry>
        </mxCell>
        <mxCell id="HIvUVLQpr85xc8KO1n1c-7" value="Berhasil" style="rhombus;whiteSpace=wrap;html=1;" vertex="1" parent="1">
          <mxGeometry x="110" y="564" width="130" height="80" as="geometry" />
        </mxCell>
        <mxCell id="HIvUVLQpr85xc8KO1n1c-8" value="Implementasi" style="rounded=0;whiteSpace=wrap;html=1;" vertex="1" parent="1">
          <mxGeometry x="115.5" y="674" width="120" height="60" as="geometry" />
        </mxCell>
        <mxCell id="HIvUVLQpr85xc8KO1n1c-17" style="edgeStyle=orthogonalEdgeStyle;rounded=0;orthogonalLoop=1;jettySize=auto;html=1;exitX=0.5;exitY=0.5;exitDx=0;exitDy=25;exitPerimeter=0;entryX=0.5;entryY=0;entryDx=0;entryDy=0;" edge="1" parent="1" source="HIvUVLQpr85xc8KO1n1c-9" target="HIvUVLQpr85xc8KO1n1c-3">
          <mxGeometry relative="1" as="geometry" />
        </mxCell>
        <mxCell id="HIvUVLQpr85xc8KO1n1c-9" value="&lt;b&gt;MULAI&lt;/b&gt;" style="html=1;dashed=0;whiteSpace=wrap;shape=mxgraph.dfd.start" vertex="1" parent="1">
          <mxGeometry x="118" y="120" width="114.5" height="50" as="geometry" />
        </mxCell>
        <mxCell id="HIvUVLQpr85xc8KO1n1c-10" value="&lt;b&gt;SELESAI&lt;/b&gt;" style="html=1;dashed=0;whiteSpace=wrap;shape=mxgraph.dfd.start" vertex="1" parent="1">
          <mxGeometry x="118.5" y="774" width="114.5" height="50" as="geometry" />
        </mxCell>
        <mxCell id="HIvUVLQpr85xc8KO1n1c-11" style="edgeStyle=orthogonalEdgeStyle;rounded=0;orthogonalLoop=1;jettySize=auto;html=1;exitX=0.5;exitY=1;exitDx=0;exitDy=0;entryX=0.5;entryY=0.5;entryDx=0;entryDy=-25;entryPerimeter=0;" edge="1" parent="1" source="HIvUVLQpr85xc8KO1n1c-8" target="HIvUVLQpr85xc8KO1n1c-10">
          <mxGeometry relative="1" as="geometry" />
        </mxCell>
      </root>
    </mxGraphModel>
  </diagram>
</mxfile>
